<svg xmlns="http://www.w3.org/2000/svg" width="495" height="261" viewBox="0 0 495 261" fill="none"><path d="M259 178H495V261H377H259V178Z" fill="#4F00F6"></path><path d="M246.194 2L495 178.5H259L0 0L246.194 2Z" fill="#FF4500"></path><path d="M259 178.312L2 1V261H259V178.312Z" fill="#4F00F6"></path><mask id="mask0_208_1011" style="mask-type:alpha" maskUnits="userSpaceOnUse" x="2" y="1" width="258" height="258"><path d="M259.086 178.954L2 1V258.542H259.086V178.954Z" fill="#FFE1F9"></path></mask><g mask="url(#mask0_208_1011)"><rect x="-174.751" y="159.809" width="338.638" height="557.661" transform="rotate(-60.1872 -174.751 159.809)" fill="#4F00F7"></rect><line x1="-89.5418" y1="14.5432" x2="366.691" y2="339.424" stroke="#FF4500" stroke-width="4"></line><line x1="-61.8399" y1="-24.6292" x2="394.393" y2="300.251" stroke="#FF4500" stroke-width="4"></line><line x1="-54.5129" y1="-54.9065" x2="431.448" y2="223.55" stroke="#FF4500" stroke-width="4"></line><line x1="-28.3951" y1="-100.488" x2="457.566" y2="177.969" stroke="#FF4500" stroke-width="4"></line><line x1="-120.014" y1="57.3357" x2="336.219" y2="382.216" stroke="#FF4500" stroke-width="4"></line><line x1="-150.486" y1="100.128" x2="305.747" y2="425.009" stroke="#FF4500" stroke-width="4"></line></g></svg>