<svg xmlns="http://www.w3.org/2000/svg" width="233" height="352" viewBox="0 0 233 352" fill="none"><path d="M61.5468 -4.61194e-06L167.056 0L167.056 351.696L61.5468 351.696L61.5468 -4.61194e-06Z" fill="#FF4500"></path><path d="M66.439 351.705C30.0196 351.705 0.000110139 272.975 0.000114384 175.857C0.000118629 78.7384 30.0196 0.00854047 66.439 0.00854206C102.858 0.00854365 131.886 78.7384 131.886 175.857C131.886 272.975 102.858 351.705 66.439 351.705Z" fill="#FF4500"></path><path d="M167.553 351.705C131.133 351.705 101.114 272.975 101.114 175.857C101.114 78.7384 131.133 0.00854047 167.553 0.00854206C203.972 0.00854365 233 78.7384 233 175.857C233 272.975 203.972 351.705 167.553 351.705Z" fill="#F2FFF6"></path><mask id="mask0_208_886" style="mask-type:alpha" maskUnits="userSpaceOnUse" x="101" y="0" width="132" height="352"><path d="M167.439 351.696C131.02 351.696 101 272.967 101 175.848C101 78.7301 131.02 0.000239688 167.439 0.00024128C203.858 0.000242872 232.886 78.7301 232.886 175.848C232.886 272.967 203.858 351.697 167.439 351.696Z" fill="#F2FFF6"></path></mask><g mask="url(#mask0_208_886)"><line x1="169" y1="-8.99976" x2="169" y2="359" stroke="#4F00F7" stroke-width="4"></line><line x1="133" y1="-8.99976" x2="133" y2="359" stroke="#4F00F7" stroke-width="4"></line><line x1="204" y1="-8.99976" x2="204" y2="359" stroke="#4F00F7" stroke-width="4"></line><line x1="96" y1="336" x2="435" y2="336" stroke="#4F00F7" stroke-width="4"></line><line x1="96" y1="265" x2="435" y2="265" stroke="#4F00F7" stroke-width="4"></line><line x1="96" y1="194" x2="435" y2="194" stroke="#4F00F7" stroke-width="4"></line><line x1="96" y1="123" x2="435" y2="123" stroke="#4F00F7" stroke-width="4"></line><line x1="96" y1="53.0002" x2="435" y2="53.0003" stroke="#4F00F7" stroke-width="4"></line><line x1="96" y1="300" x2="435" y2="300" stroke="#4F00F7" stroke-width="4"></line><line x1="96" y1="230" x2="435" y2="230" stroke="#4F00F7" stroke-width="4"></line><line x1="96" y1="159" x2="435" y2="159" stroke="#4F00F7" stroke-width="4"></line><line x1="96" y1="88.0002" x2="435" y2="88.0003" stroke="#4F00F7" stroke-width="4"></line><line x1="96" y1="17.0002" x2="435" y2="17.0003" stroke="#4F00F7" stroke-width="4"></line></g></svg>