<svg xmlns="http://www.w3.org/2000/svg" width="502" height="243" viewBox="0 0 502 243" fill="none"><path d="M143.159 0.5L284 241.5H0L143.159 0.5Z" fill="#4F00F6"></path><path d="M300.674 0H143L284.047 241.587L391.899 243H501.145L300.674 0Z" fill="#FF4500"></path><mask id="mask0_208_997" style="mask-type:alpha" maskUnits="userSpaceOnUse" x="143" y="0" width="359" height="243"><path d="M300.674 0H143L284.047 241.587L391.899 243H501.145L300.674 0Z" fill="#FF4500"></path></mask><g mask="url(#mask0_208_997)"><mask id="mask1_208_997" style="mask-type:alpha" maskUnits="userSpaceOnUse" x="75" y="-140" width="485" height="484"><rect x="457.079" y="-140" width="395" height="395" transform="rotate(75 457.079 -140)" fill="#FF4500"></rect></mask><g mask="url(#mask1_208_997)"><path d="M517.655 10.1628C506.211 -32.5469 576.355 -28.4546 564.911 -71.1669C553.466 -113.879 494.766 -75.2604 483.321 -117.973C477.229 -140.709 494.255 -150.182 509.788 -160.512" stroke="#4F00F6" stroke-width="4.92016" stroke-miterlimit="10"></path><path d="M247.48 82.5561C236.036 39.8464 305.681 44.0725 294.236 1.36022C282.792 -41.3521 224.591 -2.86714 213.146 -45.5794C207.054 -68.3153 223.939 -77.7506 239.339 -88.0452" stroke="#4F00F6" stroke-width="4.92016" stroke-miterlimit="10"></path><path d="M316.144 338.813C304.7 296.103 374.345 300.331 362.9 257.617C351.455 214.904 293.255 253.39 281.81 210.677C270.365 167.965 340.011 172.194 328.566 129.482C317.122 86.7693 258.921 125.254 247.476 82.542" stroke="#4F00F6" stroke-width="4.92016" stroke-miterlimit="10"></path><path d="M463.72 24.6147C452.276 -18.095 522.42 -14.0027 510.976 -56.715C499.531 -99.4273 440.831 -60.8085 429.386 -103.521C423.294 -126.257 440.32 -135.73 455.853 -146.06" stroke="#4F00F6" stroke-width="4.92016" stroke-miterlimit="10"></path><path d="M532.384 280.872C520.94 238.162 591.084 242.255 579.639 199.542C568.194 156.828 509.495 195.448 498.05 152.736C486.605 110.024 556.75 114.119 545.306 71.4064C533.861 28.6941 475.161 67.3128 463.716 24.6006" stroke="#4F00F6" stroke-width="4.92016" stroke-miterlimit="10"></path><ellipse cx="496.052" cy="47.7578" rx="5.62852" ry="5.65991" transform="rotate(75 496.052 47.7578)" fill="#F2FFF6"></ellipse><path d="M193.046 97.1416C181.602 54.4319 251.746 58.5242 240.301 15.8119C228.857 -26.9004 170.157 11.7183 158.712 -30.9939C152.62 -53.7298 169.646 -63.2031 185.178 -73.5331" stroke="#4F00F6" stroke-width="4.92016" stroke-miterlimit="10"></path><path d="M261.71 353.398C250.265 310.689 320.41 314.782 308.965 272.069C297.52 229.355 238.82 267.975 227.376 225.263C215.931 182.551 286.076 186.645 274.631 143.933C263.187 101.221 204.487 139.84 193.042 97.1274" stroke="#4F00F6" stroke-width="4.92016" stroke-miterlimit="10"></path><path d="M409.785 39.0666C398.341 -3.64307 467.986 0.582991 456.541 -42.1293C445.096 -84.8416 386.896 -46.3566 375.451 -89.0689C369.359 -111.805 386.244 -121.24 401.644 -131.535" stroke="#4F00F6" stroke-width="4.92016" stroke-miterlimit="10"></path><path d="M478.449 295.323C467.005 252.614 536.65 256.841 525.205 214.128C513.76 171.414 455.56 209.9 444.115 167.188C432.67 124.476 502.316 128.704 490.871 85.9921C479.426 43.2798 421.226 81.7647 409.781 39.0525" stroke="#4F00F6" stroke-width="4.92016" stroke-miterlimit="10"></path><ellipse cx="441.927" cy="62.2601" rx="5.62852" ry="5.61603" transform="rotate(75 441.927 62.2601)" fill="#F2FFF6"></ellipse><path d="M139.111 111.593C127.667 68.8838 197.312 73.1098 185.867 30.3976C174.422 -12.3147 116.222 26.1702 104.777 -16.5421C98.6851 -39.2779 115.57 -48.7133 130.97 -59.0079" stroke="#4F00F6" stroke-width="4.92016" stroke-miterlimit="10"></path><path d="M207.775 367.85C196.331 325.141 265.976 329.368 254.531 286.654C243.086 243.941 184.886 282.427 173.441 239.715C161.996 197.003 231.642 201.231 220.197 158.519C208.752 115.807 150.552 154.292 139.107 111.579" stroke="#4F00F6" stroke-width="4.92016" stroke-miterlimit="10"></path><ellipse cx="171.253" cy="134.787" rx="5.62852" ry="5.61603" transform="rotate(75 171.253 134.787)" fill="#F2FFF6"></ellipse><path d="M355.35 53.6523C343.906 10.9426 414.051 15.0349 402.606 -27.6774C391.161 -70.3897 332.461 -31.7709 321.017 -74.4832C314.925 -97.2191 331.951 -106.692 347.483 -117.022" stroke="#4F00F6" stroke-width="4.92016" stroke-miterlimit="10"></path><path d="M424.014 309.909C412.57 267.2 482.715 271.293 471.27 228.579C459.825 185.866 401.125 224.486 389.68 181.774C378.236 139.061 448.381 143.156 436.936 100.444C425.491 57.7317 366.791 96.3504 355.347 53.6382" stroke="#4F00F6" stroke-width="4.92016" stroke-miterlimit="10"></path><ellipse cx="387.682" cy="76.7954" rx="5.62852" ry="5.65991" transform="rotate(75 387.682 76.7954)" fill="#F2FFF6"></ellipse><path d="M84.6766 126.179C73.2325 83.4695 143.377 87.5618 131.932 44.8495C120.487 2.1372 61.7875 40.7559 50.3427 -1.95634C44.2507 -24.6922 61.2768 -34.1655 76.8093 -44.4955" stroke="#4F00F6" stroke-width="4.92016" stroke-miterlimit="10"></path><path d="M153.34 382.436C141.896 339.726 212.041 343.82 200.596 301.106C189.151 258.393 130.451 297.013 119.007 254.301C107.562 211.588 177.707 215.683 166.262 172.971C154.817 130.259 96.1175 168.877 84.6727 126.165" stroke="#4F00F6" stroke-width="4.92016" stroke-miterlimit="10"></path><path d="M301.415 68.1042C289.971 25.3945 359.616 29.6206 348.171 -13.0917C336.727 -55.804 278.526 -17.319 267.081 -60.0313C260.989 -82.7672 277.874 -92.2025 293.274 -102.497" stroke="#4F00F6" stroke-width="4.92016" stroke-miterlimit="10"></path><path d="M370.079 324.361C358.635 281.651 428.28 285.879 416.835 243.165C405.39 200.452 347.19 238.938 335.745 196.226C324.3 153.513 393.946 157.742 382.501 115.03C371.057 72.3174 312.856 110.802 301.411 68.0901" stroke="#4F00F6" stroke-width="4.92016" stroke-miterlimit="10"></path><path d="M99.4048 396.888C87.9608 354.178 158.105 358.272 146.66 315.558C135.215 272.845 76.5157 311.465 65.071 268.752C53.6263 226.04 123.771 230.135 112.327 187.423C100.882 144.71 42.1819 183.329 30.7372 140.617" stroke="#4F00F6" stroke-width="4.92016" stroke-miterlimit="10"></path></g></g></svg>